<mxfile host="app.diagrams.net" agent="Mozilla/5.0 (Windows NT 10.0; Win64; x64; rv:144.0) Gecko/20100101 Firefox/144.0" version="28.2.7">
  <diagram name="Страница — 1" id="gY2O-qyHXz5owjPsCHkH">
    <mxGraphModel dx="1924" dy="1762" grid="1" gridSize="10" guides="1" tooltips="1" connect="1" arrows="1" fold="1" page="1" pageScale="1" pageWidth="827" pageHeight="1169" math="0" shadow="0">
      <root>
        <mxCell id="0" />
        <mxCell id="1" parent="0" />
        <mxCell id="v99KTuT6lKcqQnEKjUZW-56" value="Abstract Position" style="swimlane;fontStyle=1;align=center;verticalAlign=top;childLayout=stackLayout;horizontal=1;startSize=26;horizontalStack=0;resizeParent=1;resizeParentMax=0;resizeLast=0;collapsible=1;marginBottom=0;whiteSpace=wrap;html=1;" parent="1" vertex="1">
          <mxGeometry x="620" y="20" width="160" height="210" as="geometry" />
        </mxCell>
        <mxCell id="v99KTuT6lKcqQnEKjUZW-57" value="&lt;div&gt;-x: double&lt;/div&gt;&lt;div&gt;-y: double&lt;/div&gt;" style="text;strokeColor=none;fillColor=none;align=left;verticalAlign=top;spacingLeft=4;spacingRight=4;overflow=hidden;rotatable=0;points=[[0,0.5],[1,0.5]];portConstraint=eastwest;whiteSpace=wrap;html=1;" parent="v99KTuT6lKcqQnEKjUZW-56" vertex="1">
          <mxGeometry y="26" width="160" height="74" as="geometry" />
        </mxCell>
        <mxCell id="v99KTuT6lKcqQnEKjUZW-58" value="" style="line;strokeWidth=1;fillColor=none;align=left;verticalAlign=middle;spacingTop=-1;spacingLeft=3;spacingRight=3;rotatable=0;labelPosition=right;points=[];portConstraint=eastwest;strokeColor=inherit;" parent="v99KTuT6lKcqQnEKjUZW-56" vertex="1">
          <mxGeometry y="100" width="160" height="8" as="geometry" />
        </mxCell>
        <mxCell id="v99KTuT6lKcqQnEKjUZW-59" value="&lt;div&gt;+GetX(): double&lt;/div&gt;&lt;div&gt;+GetY(): double&lt;/div&gt;&lt;div&gt;+SetX(x: double): void&lt;/div&gt;&lt;div&gt;+SetY(y: double): void&lt;/div&gt;&lt;div&gt;&lt;br&gt;&lt;/div&gt;&lt;div&gt;&lt;br&gt;&lt;/div&gt;" style="text;strokeColor=none;fillColor=none;align=left;verticalAlign=top;spacingLeft=4;spacingRight=4;overflow=hidden;rotatable=0;points=[[0,0.5],[1,0.5]];portConstraint=eastwest;whiteSpace=wrap;html=1;" parent="v99KTuT6lKcqQnEKjUZW-56" vertex="1">
          <mxGeometry y="108" width="160" height="102" as="geometry" />
        </mxCell>
        <mxCell id="v99KTuT6lKcqQnEKjUZW-98" style="edgeStyle=orthogonalEdgeStyle;rounded=0;orthogonalLoop=1;jettySize=auto;html=1;exitX=0.5;exitY=1;exitDx=0;exitDy=0;endArrow=none;endFill=0;" parent="1" source="v99KTuT6lKcqQnEKjUZW-68" edge="1">
          <mxGeometry relative="1" as="geometry">
            <mxPoint x="300" y="370" as="targetPoint" />
          </mxGeometry>
        </mxCell>
        <mxCell id="v99KTuT6lKcqQnEKjUZW-203" style="edgeStyle=orthogonalEdgeStyle;rounded=0;orthogonalLoop=1;jettySize=auto;html=1;exitX=0.5;exitY=0;exitDx=0;exitDy=0;dashed=1;endArrow=none;endFill=0;" parent="1" source="v99KTuT6lKcqQnEKjUZW-68" edge="1">
          <mxGeometry relative="1" as="geometry">
            <mxPoint x="190" y="230" as="targetPoint" />
          </mxGeometry>
        </mxCell>
        <mxCell id="v99KTuT6lKcqQnEKjUZW-210" style="edgeStyle=orthogonalEdgeStyle;rounded=0;orthogonalLoop=1;jettySize=auto;html=1;exitX=0.25;exitY=0;exitDx=0;exitDy=0;endArrow=none;endFill=0;" parent="1" source="v99KTuT6lKcqQnEKjUZW-68" edge="1">
          <mxGeometry relative="1" as="geometry">
            <mxPoint x="155" y="150" as="targetPoint" />
          </mxGeometry>
        </mxCell>
        <mxCell id="v99KTuT6lKcqQnEKjUZW-68" value="ButtonRestart" style="swimlane;fontStyle=0;childLayout=stackLayout;horizontal=1;startSize=26;fillColor=none;horizontalStack=0;resizeParent=1;resizeParentMax=0;resizeLast=0;collapsible=1;marginBottom=0;whiteSpace=wrap;html=1;" parent="1" vertex="1">
          <mxGeometry x="120" y="264" width="140" height="50" as="geometry" />
        </mxCell>
        <mxCell id="v99KTuT6lKcqQnEKjUZW-204" style="edgeStyle=orthogonalEdgeStyle;rounded=0;orthogonalLoop=1;jettySize=auto;html=1;exitX=0.5;exitY=0;exitDx=0;exitDy=0;dashed=1;endArrow=none;endFill=0;" parent="1" source="v99KTuT6lKcqQnEKjUZW-72" edge="1">
          <mxGeometry relative="1" as="geometry">
            <mxPoint x="370" y="230" as="targetPoint" />
          </mxGeometry>
        </mxCell>
        <mxCell id="v99KTuT6lKcqQnEKjUZW-211" style="edgeStyle=orthogonalEdgeStyle;rounded=0;orthogonalLoop=1;jettySize=auto;html=1;exitX=0.25;exitY=0;exitDx=0;exitDy=0;endArrow=none;endFill=0;" parent="1" source="v99KTuT6lKcqQnEKjUZW-72" edge="1">
          <mxGeometry relative="1" as="geometry">
            <mxPoint x="335" y="150" as="targetPoint" />
          </mxGeometry>
        </mxCell>
        <mxCell id="v99KTuT6lKcqQnEKjUZW-72" value="ButtonHelp" style="swimlane;fontStyle=0;childLayout=stackLayout;horizontal=1;startSize=26;fillColor=none;horizontalStack=0;resizeParent=1;resizeParentMax=0;resizeLast=0;collapsible=1;marginBottom=0;whiteSpace=wrap;html=1;" parent="1" vertex="1">
          <mxGeometry x="300" y="264" width="140" height="48" as="geometry" />
        </mxCell>
        <mxCell id="v99KTuT6lKcqQnEKjUZW-202" style="edgeStyle=orthogonalEdgeStyle;rounded=0;orthogonalLoop=1;jettySize=auto;html=1;exitX=0.5;exitY=0;exitDx=0;exitDy=0;dashed=1;endArrow=none;endFill=0;" parent="1" source="v99KTuT6lKcqQnEKjUZW-74" edge="1">
          <mxGeometry relative="1" as="geometry">
            <mxPoint x="100" y="210" as="targetPoint" />
          </mxGeometry>
        </mxCell>
        <mxCell id="v99KTuT6lKcqQnEKjUZW-212" style="edgeStyle=orthogonalEdgeStyle;rounded=0;orthogonalLoop=1;jettySize=auto;html=1;exitX=0.25;exitY=0;exitDx=0;exitDy=0;endArrow=none;endFill=0;" parent="1" source="v99KTuT6lKcqQnEKjUZW-74" edge="1">
          <mxGeometry relative="1" as="geometry">
            <mxPoint x="505" y="150" as="targetPoint" />
          </mxGeometry>
        </mxCell>
        <mxCell id="v99KTuT6lKcqQnEKjUZW-74" value="ButtonNewLevel" style="swimlane;fontStyle=0;childLayout=stackLayout;horizontal=1;startSize=26;fillColor=none;horizontalStack=0;resizeParent=1;resizeParentMax=0;resizeLast=0;collapsible=1;marginBottom=0;whiteSpace=wrap;html=1;" parent="1" vertex="1">
          <mxGeometry x="470" y="256" width="140" height="60" as="geometry" />
        </mxCell>
        <mxCell id="v99KTuT6lKcqQnEKjUZW-86" value="&lt;div&gt;&amp;lt;&amp;lt;interface&amp;gt;&amp;gt;&lt;/div&gt;&lt;div&gt;Button&lt;/div&gt;" style="swimlane;fontStyle=0;childLayout=stackLayout;horizontal=1;startSize=26;fillColor=none;horizontalStack=0;resizeParent=1;resizeParentMax=0;resizeLast=0;collapsible=1;marginBottom=0;whiteSpace=wrap;html=1;" parent="1" vertex="1">
          <mxGeometry x="30" y="30" width="140" height="52" as="geometry" />
        </mxCell>
        <mxCell id="v99KTuT6lKcqQnEKjUZW-87" value="&lt;div&gt;+Click(): void&lt;/div&gt;" style="text;strokeColor=none;fillColor=none;align=left;verticalAlign=top;spacingLeft=4;spacingRight=4;overflow=hidden;rotatable=0;points=[[0,0.5],[1,0.5]];portConstraint=eastwest;whiteSpace=wrap;html=1;" parent="v99KTuT6lKcqQnEKjUZW-86" vertex="1">
          <mxGeometry y="26" width="140" height="26" as="geometry" />
        </mxCell>
        <mxCell id="v99KTuT6lKcqQnEKjUZW-97" value="" style="endArrow=diamondThin;endFill=0;endSize=24;html=1;rounded=0;entryX=0.5;entryY=0;entryDx=0;entryDy=0;exitX=0.436;exitY=1.091;exitDx=0;exitDy=0;exitPerimeter=0;" parent="1" edge="1">
          <mxGeometry width="160" relative="1" as="geometry">
            <mxPoint x="361.03999999999996" y="314.00199999999995" as="sourcePoint" />
            <mxPoint x="300" y="440" as="targetPoint" />
            <Array as="points">
              <mxPoint x="300" y="320" />
              <mxPoint x="300" y="350" />
            </Array>
          </mxGeometry>
        </mxCell>
        <mxCell id="v99KTuT6lKcqQnEKjUZW-99" style="edgeStyle=orthogonalEdgeStyle;rounded=0;orthogonalLoop=1;jettySize=auto;html=1;endArrow=none;endFill=0;exitX=0.6;exitY=1.091;exitDx=0;exitDy=0;exitPerimeter=0;" parent="1" edge="1">
          <mxGeometry relative="1" as="geometry">
            <mxPoint x="300" y="344" as="targetPoint" />
            <mxPoint x="498" y="320.00199999999995" as="sourcePoint" />
            <Array as="points">
              <mxPoint x="500" y="320" />
            </Array>
          </mxGeometry>
        </mxCell>
        <mxCell id="v99KTuT6lKcqQnEKjUZW-100" value="" style="endArrow=block;endSize=16;endFill=0;html=1;rounded=0;exitX=1;exitY=0.15;exitDx=0;exitDy=0;exitPerimeter=0;" parent="1" source="v99KTuT6lKcqQnEKjUZW-139" target="v99KTuT6lKcqQnEKjUZW-59" edge="1">
          <mxGeometry width="160" relative="1" as="geometry">
            <mxPoint x="380" y="462.5" as="sourcePoint" />
            <mxPoint x="540" y="462.5" as="targetPoint" />
            <Array as="points">
              <mxPoint x="700" y="463" />
            </Array>
          </mxGeometry>
        </mxCell>
        <mxCell id="v99KTuT6lKcqQnEKjUZW-101" value="time" style="swimlane;fontStyle=1;align=center;verticalAlign=top;childLayout=stackLayout;horizontal=1;startSize=26;horizontalStack=0;resizeParent=1;resizeParentMax=0;resizeLast=0;collapsible=1;marginBottom=0;whiteSpace=wrap;html=1;" parent="1" vertex="1">
          <mxGeometry x="-140" y="420" width="160" height="110" as="geometry" />
        </mxCell>
        <mxCell id="v99KTuT6lKcqQnEKjUZW-102" value="-time: string" style="text;strokeColor=none;fillColor=none;align=left;verticalAlign=top;spacingLeft=4;spacingRight=4;overflow=hidden;rotatable=0;points=[[0,0.5],[1,0.5]];portConstraint=eastwest;whiteSpace=wrap;html=1;" parent="v99KTuT6lKcqQnEKjUZW-101" vertex="1">
          <mxGeometry y="26" width="160" height="26" as="geometry" />
        </mxCell>
        <mxCell id="v99KTuT6lKcqQnEKjUZW-103" value="" style="line;strokeWidth=1;fillColor=none;align=left;verticalAlign=middle;spacingTop=-1;spacingLeft=3;spacingRight=3;rotatable=0;labelPosition=right;points=[];portConstraint=eastwest;strokeColor=inherit;" parent="v99KTuT6lKcqQnEKjUZW-101" vertex="1">
          <mxGeometry y="52" width="160" height="8" as="geometry" />
        </mxCell>
        <mxCell id="v99KTuT6lKcqQnEKjUZW-104" value="&lt;div&gt;+RestartTime(): void&lt;/div&gt;&lt;div&gt;+DrawTime(): void&lt;/div&gt;" style="text;strokeColor=none;fillColor=none;align=left;verticalAlign=top;spacingLeft=4;spacingRight=4;overflow=hidden;rotatable=0;points=[[0,0.5],[1,0.5]];portConstraint=eastwest;whiteSpace=wrap;html=1;" parent="v99KTuT6lKcqQnEKjUZW-101" vertex="1">
          <mxGeometry y="60" width="160" height="50" as="geometry" />
        </mxCell>
        <mxCell id="v99KTuT6lKcqQnEKjUZW-114" style="edgeStyle=orthogonalEdgeStyle;rounded=0;orthogonalLoop=1;jettySize=auto;html=1;exitX=1;exitY=0.5;exitDx=0;exitDy=0;endArrow=none;endFill=0;" parent="1" source="v99KTuT6lKcqQnEKjUZW-109" edge="1">
          <mxGeometry relative="1" as="geometry">
            <mxPoint x="120" y="460" as="targetPoint" />
          </mxGeometry>
        </mxCell>
        <mxCell id="v99KTuT6lKcqQnEKjUZW-109" value="SumFlag" style="swimlane;fontStyle=1;align=center;verticalAlign=top;childLayout=stackLayout;horizontal=1;startSize=26;horizontalStack=0;resizeParent=1;resizeParentMax=0;resizeLast=0;collapsible=1;marginBottom=0;whiteSpace=wrap;html=1;" parent="1" vertex="1">
          <mxGeometry x="-140" y="550" width="210" height="110" as="geometry" />
        </mxCell>
        <mxCell id="v99KTuT6lKcqQnEKjUZW-110" value="-sumFlag: int" style="text;strokeColor=none;fillColor=none;align=left;verticalAlign=top;spacingLeft=4;spacingRight=4;overflow=hidden;rotatable=0;points=[[0,0.5],[1,0.5]];portConstraint=eastwest;whiteSpace=wrap;html=1;" parent="v99KTuT6lKcqQnEKjUZW-109" vertex="1">
          <mxGeometry y="26" width="210" height="26" as="geometry" />
        </mxCell>
        <mxCell id="v99KTuT6lKcqQnEKjUZW-111" value="" style="line;strokeWidth=1;fillColor=none;align=left;verticalAlign=middle;spacingTop=-1;spacingLeft=3;spacingRight=3;rotatable=0;labelPosition=right;points=[];portConstraint=eastwest;strokeColor=inherit;" parent="v99KTuT6lKcqQnEKjUZW-109" vertex="1">
          <mxGeometry y="52" width="210" height="8" as="geometry" />
        </mxCell>
        <mxCell id="v99KTuT6lKcqQnEKjUZW-112" value="&lt;div&gt;+SetSum(n: int): void&lt;/div&gt;&lt;div&gt;+DrawSum():void&lt;/div&gt;&lt;div&gt;&lt;br&gt;&lt;/div&gt;" style="text;strokeColor=none;fillColor=none;align=left;verticalAlign=top;spacingLeft=4;spacingRight=4;overflow=hidden;rotatable=0;points=[[0,0.5],[1,0.5]];portConstraint=eastwest;whiteSpace=wrap;html=1;" parent="v99KTuT6lKcqQnEKjUZW-109" vertex="1">
          <mxGeometry y="60" width="210" height="50" as="geometry" />
        </mxCell>
        <mxCell id="v99KTuT6lKcqQnEKjUZW-113" value="" style="endArrow=diamondThin;endFill=0;endSize=24;html=1;rounded=0;entryX=0.013;entryY=0.962;entryDx=0;entryDy=0;entryPerimeter=0;exitX=1;exitY=0.962;exitDx=0;exitDy=0;exitPerimeter=0;" parent="1" edge="1">
          <mxGeometry width="160" relative="1" as="geometry">
            <mxPoint x="20" y="462.51200000000017" as="sourcePoint" />
            <mxPoint x="222.07999999999993" y="462.51200000000017" as="targetPoint" />
            <Array as="points">
              <mxPoint x="130" y="462.5" />
            </Array>
          </mxGeometry>
        </mxCell>
        <mxCell id="v99KTuT6lKcqQnEKjUZW-115" value="" style="endArrow=block;endSize=16;endFill=0;html=1;rounded=0;exitX=0.631;exitY=0.012;exitDx=0;exitDy=0;exitPerimeter=0;" parent="1" edge="1">
          <mxGeometry width="160" relative="1" as="geometry">
            <mxPoint x="-39.039999999999964" y="420.0020000000002" as="sourcePoint" />
            <mxPoint x="620" y="48.97" as="targetPoint" />
            <Array as="points">
              <mxPoint x="-330" y="350" />
              <mxPoint x="-340" y="-1" />
              <mxPoint x="240" y="-1.03" />
            </Array>
          </mxGeometry>
        </mxCell>
        <mxCell id="v99KTuT6lKcqQnEKjUZW-134" style="edgeStyle=orthogonalEdgeStyle;rounded=0;orthogonalLoop=1;jettySize=auto;html=1;exitX=0.5;exitY=1;exitDx=0;exitDy=0;endArrow=none;endFill=0;" parent="1" source="v99KTuT6lKcqQnEKjUZW-130" edge="1">
          <mxGeometry relative="1" as="geometry">
            <mxPoint x="200" y="340" as="targetPoint" />
            <Array as="points">
              <mxPoint x="40" y="340" />
            </Array>
          </mxGeometry>
        </mxCell>
        <mxCell id="v99KTuT6lKcqQnEKjUZW-198" style="edgeStyle=orthogonalEdgeStyle;rounded=0;orthogonalLoop=1;jettySize=auto;html=1;exitX=0.5;exitY=0;exitDx=0;exitDy=0;endArrow=none;endFill=0;dashed=1;" parent="1" source="v99KTuT6lKcqQnEKjUZW-130" edge="1">
          <mxGeometry relative="1" as="geometry">
            <mxPoint x="100" y="200" as="targetPoint" />
            <Array as="points">
              <mxPoint x="40" y="233" />
              <mxPoint x="100" y="233" />
            </Array>
          </mxGeometry>
        </mxCell>
        <mxCell id="v99KTuT6lKcqQnEKjUZW-209" style="edgeStyle=orthogonalEdgeStyle;rounded=0;orthogonalLoop=1;jettySize=auto;html=1;exitX=0.25;exitY=0;exitDx=0;exitDy=0;endArrow=none;endFill=0;" parent="1" source="v99KTuT6lKcqQnEKjUZW-130" edge="1">
          <mxGeometry relative="1" as="geometry">
            <mxPoint x="10" y="150" as="targetPoint" />
          </mxGeometry>
        </mxCell>
        <mxCell id="v99KTuT6lKcqQnEKjUZW-130" value="ButtonExit" style="swimlane;fontStyle=0;childLayout=stackLayout;horizontal=1;startSize=26;fillColor=none;horizontalStack=0;resizeParent=1;resizeParentMax=0;resizeLast=0;collapsible=1;marginBottom=0;whiteSpace=wrap;html=1;" parent="1" vertex="1">
          <mxGeometry x="-20" y="264" width="120" height="50" as="geometry">
            <mxRectangle x="-20" y="264" width="110" height="30" as="alternateBounds" />
          </mxGeometry>
        </mxCell>
        <mxCell id="v99KTuT6lKcqQnEKjUZW-139" value="Panel" style="swimlane;fontStyle=0;childLayout=stackLayout;horizontal=1;startSize=26;fillColor=none;horizontalStack=0;resizeParent=1;resizeParentMax=0;resizeLast=0;collapsible=1;marginBottom=0;whiteSpace=wrap;html=1;" parent="1" vertex="1">
          <mxGeometry x="220" y="440" width="200" height="180" as="geometry">
            <mxRectangle x="220" y="440" width="70" height="30" as="alternateBounds" />
          </mxGeometry>
        </mxCell>
        <mxCell id="v99KTuT6lKcqQnEKjUZW-140" value="-Exit: ButtonExit" style="text;strokeColor=none;fillColor=none;align=left;verticalAlign=top;spacingLeft=4;spacingRight=4;overflow=hidden;rotatable=0;points=[[0,0.5],[1,0.5]];portConstraint=eastwest;whiteSpace=wrap;html=1;" parent="v99KTuT6lKcqQnEKjUZW-139" vertex="1">
          <mxGeometry y="26" width="200" height="26" as="geometry" />
        </mxCell>
        <mxCell id="v99KTuT6lKcqQnEKjUZW-174" style="edgeStyle=orthogonalEdgeStyle;rounded=0;orthogonalLoop=1;jettySize=auto;html=1;exitX=1;exitY=0.5;exitDx=0;exitDy=0;endArrow=none;endFill=0;" parent="v99KTuT6lKcqQnEKjUZW-139" source="v99KTuT6lKcqQnEKjUZW-141" edge="1">
          <mxGeometry relative="1" as="geometry">
            <mxPoint x="240" y="210" as="targetPoint" />
          </mxGeometry>
        </mxCell>
        <mxCell id="v99KTuT6lKcqQnEKjUZW-141" value="&lt;div&gt;-Restart: ButtonRestart&lt;br&gt;&lt;br&gt;&lt;/div&gt;" style="text;strokeColor=none;fillColor=none;align=left;verticalAlign=top;spacingLeft=4;spacingRight=4;overflow=hidden;rotatable=0;points=[[0,0.5],[1,0.5]];portConstraint=eastwest;whiteSpace=wrap;html=1;" parent="v99KTuT6lKcqQnEKjUZW-139" vertex="1">
          <mxGeometry y="52" width="200" height="26" as="geometry" />
        </mxCell>
        <mxCell id="v99KTuT6lKcqQnEKjUZW-142" value="-Help: ButtonHelp&lt;br&gt;&lt;div&gt;&lt;br&gt;&lt;/div&gt;&lt;div&gt;-NewLevel:ButtonNewLevel&lt;br&gt;&lt;br&gt;&lt;/div&gt;&lt;div&gt;-LoupePlus: ButtonLoupePlus&lt;/div&gt;&lt;div&gt;-LoupeMinus: ButtonLoupeMinus&lt;/div&gt;&lt;div&gt;&lt;br&gt;&lt;/div&gt;" style="text;strokeColor=none;fillColor=none;align=left;verticalAlign=top;spacingLeft=4;spacingRight=4;overflow=hidden;rotatable=0;points=[[0,0.5],[1,0.5]];portConstraint=eastwest;whiteSpace=wrap;html=1;" parent="v99KTuT6lKcqQnEKjUZW-139" vertex="1">
          <mxGeometry y="78" width="200" height="102" as="geometry" />
        </mxCell>
        <mxCell id="v99KTuT6lKcqQnEKjUZW-147" value="Point" style="swimlane;fontStyle=1;align=center;verticalAlign=top;childLayout=stackLayout;horizontal=1;startSize=26;horizontalStack=0;resizeParent=1;resizeParentMax=0;resizeLast=0;collapsible=1;marginBottom=0;whiteSpace=wrap;html=1;" parent="1" vertex="1">
          <mxGeometry x="-130" y="730" width="160" height="190" as="geometry" />
        </mxCell>
        <mxCell id="v99KTuT6lKcqQnEKjUZW-185" style="edgeStyle=orthogonalEdgeStyle;rounded=0;orthogonalLoop=1;jettySize=auto;html=1;exitX=0;exitY=0.5;exitDx=0;exitDy=0;endArrow=none;endFill=0;" parent="v99KTuT6lKcqQnEKjUZW-147" source="v99KTuT6lKcqQnEKjUZW-148" edge="1">
          <mxGeometry relative="1" as="geometry">
            <mxPoint x="-330" y="-100" as="targetPoint" />
          </mxGeometry>
        </mxCell>
        <mxCell id="v99KTuT6lKcqQnEKjUZW-148" value="&lt;div&gt;-Bomb: bool&lt;/div&gt;&lt;div&gt;-visiability: bool&lt;br&gt;-Number: int&lt;br&gt;-Flag:bool&lt;/div&gt;&lt;div&gt;&lt;br&gt;&lt;/div&gt;" style="text;strokeColor=none;fillColor=none;align=left;verticalAlign=top;spacingLeft=4;spacingRight=4;overflow=hidden;rotatable=0;points=[[0,0.5],[1,0.5]];portConstraint=eastwest;whiteSpace=wrap;html=1;" parent="v99KTuT6lKcqQnEKjUZW-147" vertex="1">
          <mxGeometry y="26" width="160" height="64" as="geometry" />
        </mxCell>
        <mxCell id="v99KTuT6lKcqQnEKjUZW-149" value="" style="line;strokeWidth=1;fillColor=none;align=left;verticalAlign=middle;spacingTop=-1;spacingLeft=3;spacingRight=3;rotatable=0;labelPosition=right;points=[];portConstraint=eastwest;strokeColor=inherit;" parent="v99KTuT6lKcqQnEKjUZW-147" vertex="1">
          <mxGeometry y="90" width="160" height="8" as="geometry" />
        </mxCell>
        <mxCell id="v99KTuT6lKcqQnEKjUZW-150" value="&lt;div&gt;+IsBomb(): bool&lt;/div&gt;&lt;div&gt;+GetNumber(): int&lt;/div&gt;&lt;div&gt;+SetNubmber(n: int): void&lt;br&gt;+SetBomb():void&lt;/div&gt;&lt;div&gt;+SetFlag():void&lt;/div&gt;&lt;div&gt;+DeleteFlag():void&lt;/div&gt;" style="text;strokeColor=none;fillColor=none;align=left;verticalAlign=top;spacingLeft=4;spacingRight=4;overflow=hidden;rotatable=0;points=[[0,0.5],[1,0.5]];portConstraint=eastwest;whiteSpace=wrap;html=1;" parent="v99KTuT6lKcqQnEKjUZW-147" vertex="1">
          <mxGeometry y="98" width="160" height="92" as="geometry" />
        </mxCell>
        <mxCell id="v99KTuT6lKcqQnEKjUZW-152" value="" style="endArrow=open;endFill=1;endSize=12;html=1;rounded=0;entryX=1;entryY=0.5;entryDx=0;entryDy=0;exitX=-0.006;exitY=0.077;exitDx=0;exitDy=0;exitPerimeter=0;" parent="1" target="v99KTuT6lKcqQnEKjUZW-147" edge="1">
          <mxGeometry width="160" relative="1" as="geometry">
            <mxPoint x="209.03999999999996" y="708.002" as="sourcePoint" />
            <mxPoint x="190" y="709.5" as="targetPoint" />
          </mxGeometry>
        </mxCell>
        <mxCell id="v99KTuT6lKcqQnEKjUZW-175" style="edgeStyle=orthogonalEdgeStyle;rounded=0;orthogonalLoop=1;jettySize=auto;html=1;exitX=1;exitY=0.5;exitDx=0;exitDy=0;endArrow=none;endFill=0;" parent="1" source="v99KTuT6lKcqQnEKjUZW-153" edge="1">
          <mxGeometry relative="1" as="geometry">
            <mxPoint x="460" y="640" as="targetPoint" />
          </mxGeometry>
        </mxCell>
        <mxCell id="v99KTuT6lKcqQnEKjUZW-196" style="edgeStyle=orthogonalEdgeStyle;rounded=0;orthogonalLoop=1;jettySize=auto;html=1;exitX=1;exitY=0.75;exitDx=0;exitDy=0;endArrow=none;endFill=0;" parent="1" source="v99KTuT6lKcqQnEKjUZW-153" edge="1">
          <mxGeometry relative="1" as="geometry">
            <mxPoint x="700" y="430" as="targetPoint" />
          </mxGeometry>
        </mxCell>
        <mxCell id="v99KTuT6lKcqQnEKjUZW-153" value="GameField" style="swimlane;fontStyle=1;align=center;verticalAlign=top;childLayout=stackLayout;horizontal=1;startSize=26;horizontalStack=0;resizeParent=1;resizeParentMax=0;resizeLast=0;collapsible=1;marginBottom=0;whiteSpace=wrap;html=1;" parent="1" vertex="1">
          <mxGeometry x="210" y="670" width="170" height="178" as="geometry" />
        </mxCell>
        <mxCell id="v99KTuT6lKcqQnEKjUZW-154" value="&lt;div&gt;-points:point[1..*][1..*]&lt;/div&gt;&lt;div&gt;-SumFlag: int&lt;/div&gt;" style="text;strokeColor=none;fillColor=none;align=left;verticalAlign=top;spacingLeft=4;spacingRight=4;overflow=hidden;rotatable=0;points=[[0,0.5],[1,0.5]];portConstraint=eastwest;whiteSpace=wrap;html=1;" parent="v99KTuT6lKcqQnEKjUZW-153" vertex="1">
          <mxGeometry y="26" width="170" height="34" as="geometry" />
        </mxCell>
        <mxCell id="v99KTuT6lKcqQnEKjUZW-155" value="" style="line;strokeWidth=1;fillColor=none;align=left;verticalAlign=middle;spacingTop=-1;spacingLeft=3;spacingRight=3;rotatable=0;labelPosition=right;points=[];portConstraint=eastwest;strokeColor=inherit;" parent="v99KTuT6lKcqQnEKjUZW-153" vertex="1">
          <mxGeometry y="60" width="170" height="8" as="geometry" />
        </mxCell>
        <mxCell id="v99KTuT6lKcqQnEKjUZW-156" value="&lt;div&gt;+FirstClick(points: point[1..*][1..*]): void&lt;/div&gt;&lt;div&gt;+LeftClick(p:point): void&lt;br&gt;&lt;div&gt;+RightClick(p:point): void&lt;/div&gt;&lt;/div&gt;&lt;div&gt;+SetSumFlag(points: point[1..*][1..*]): void&lt;/div&gt;&lt;div&gt;+GetSum(): int&lt;br&gt;&lt;br&gt;&lt;/div&gt;" style="text;strokeColor=none;fillColor=none;align=left;verticalAlign=top;spacingLeft=4;spacingRight=4;overflow=hidden;rotatable=0;points=[[0,0.5],[1,0.5]];portConstraint=eastwest;whiteSpace=wrap;html=1;" parent="v99KTuT6lKcqQnEKjUZW-153" vertex="1">
          <mxGeometry y="68" width="170" height="110" as="geometry" />
        </mxCell>
        <mxCell id="v99KTuT6lKcqQnEKjUZW-158" value="Game" style="swimlane;fontStyle=1;align=center;verticalAlign=top;childLayout=stackLayout;horizontal=1;startSize=26;horizontalStack=0;resizeParent=1;resizeParentMax=0;resizeLast=0;collapsible=1;marginBottom=0;whiteSpace=wrap;html=1;" parent="1" vertex="1">
          <mxGeometry x="510" y="510" width="180" height="230" as="geometry" />
        </mxCell>
        <mxCell id="v99KTuT6lKcqQnEKjUZW-159" value="&lt;div&gt;-Panel: Panel&lt;/div&gt;&lt;div&gt;-Field: GameField&lt;/div&gt;&lt;div&gt;-Difficulty: difficulty&lt;/div&gt;" style="text;strokeColor=none;fillColor=none;align=left;verticalAlign=top;spacingLeft=4;spacingRight=4;overflow=hidden;rotatable=0;points=[[0,0.5],[1,0.5]];portConstraint=eastwest;whiteSpace=wrap;html=1;" parent="v99KTuT6lKcqQnEKjUZW-158" vertex="1">
          <mxGeometry y="26" width="180" height="54" as="geometry" />
        </mxCell>
        <mxCell id="v99KTuT6lKcqQnEKjUZW-160" value="" style="line;strokeWidth=1;fillColor=none;align=left;verticalAlign=middle;spacingTop=-1;spacingLeft=3;spacingRight=3;rotatable=0;labelPosition=right;points=[];portConstraint=eastwest;strokeColor=inherit;" parent="v99KTuT6lKcqQnEKjUZW-158" vertex="1">
          <mxGeometry y="80" width="180" height="8" as="geometry" />
        </mxCell>
        <mxCell id="v99KTuT6lKcqQnEKjUZW-161" value="&lt;div&gt;&lt;div&gt;+DrawPanel(width: int, height: int): void&lt;/div&gt;&lt;div&gt;+CreateField(width: int, height:int, d:difficulty): GameField&lt;/div&gt;&lt;div&gt;+DrawField(GF: GameField): void&lt;/div&gt;&lt;div&gt;+Restart(): void&lt;br&gt;+Exit():void&lt;/div&gt;&lt;/div&gt;" style="text;strokeColor=none;fillColor=none;align=left;verticalAlign=top;spacingLeft=4;spacingRight=4;overflow=hidden;rotatable=0;points=[[0,0.5],[1,0.5]];portConstraint=eastwest;whiteSpace=wrap;html=1;" parent="v99KTuT6lKcqQnEKjUZW-158" vertex="1">
          <mxGeometry y="88" width="180" height="142" as="geometry" />
        </mxCell>
        <mxCell id="v99KTuT6lKcqQnEKjUZW-171" value="" style="endArrow=diamondThin;endFill=1;endSize=24;html=1;rounded=0;" parent="1" edge="1">
          <mxGeometry width="160" relative="1" as="geometry">
            <mxPoint x="460" y="644" as="sourcePoint" />
            <mxPoint x="510" y="640" as="targetPoint" />
          </mxGeometry>
        </mxCell>
        <mxCell id="v99KTuT6lKcqQnEKjUZW-176" value="&amp;lt;&amp;lt;interface&amp;gt;&amp;gt;&lt;br&gt;InfOut" style="swimlane;fontStyle=0;childLayout=stackLayout;horizontal=1;startSize=26;fillColor=none;horizontalStack=0;resizeParent=1;resizeParentMax=0;resizeLast=0;collapsible=1;marginBottom=0;whiteSpace=wrap;html=1;" parent="1" vertex="1">
          <mxGeometry x="-390" y="481" width="140" height="52" as="geometry" />
        </mxCell>
        <mxCell id="v99KTuT6lKcqQnEKjUZW-177" value="+GetInf(): string" style="text;strokeColor=none;fillColor=none;align=left;verticalAlign=top;spacingLeft=4;spacingRight=4;overflow=hidden;rotatable=0;points=[[0,0.5],[1,0.5]];portConstraint=eastwest;whiteSpace=wrap;html=1;" parent="v99KTuT6lKcqQnEKjUZW-176" vertex="1">
          <mxGeometry y="26" width="140" height="26" as="geometry" />
        </mxCell>
        <mxCell id="v99KTuT6lKcqQnEKjUZW-184" style="edgeStyle=orthogonalEdgeStyle;rounded=0;orthogonalLoop=1;jettySize=auto;html=1;exitX=0;exitY=0.5;exitDx=0;exitDy=0;endArrow=none;endFill=0;" parent="1" edge="1">
          <mxGeometry relative="1" as="geometry">
            <mxPoint x="-30" as="targetPoint" />
            <mxPoint x="-140" y="640" as="sourcePoint" />
            <Array as="points">
              <mxPoint x="-460" y="640" />
              <mxPoint x="-460" />
              <mxPoint x="-30" />
            </Array>
          </mxGeometry>
        </mxCell>
        <mxCell id="v99KTuT6lKcqQnEKjUZW-195" style="edgeStyle=orthogonalEdgeStyle;rounded=0;orthogonalLoop=1;jettySize=auto;html=1;exitX=0.5;exitY=1;exitDx=0;exitDy=0;endArrow=none;endFill=0;" parent="1" source="v99KTuT6lKcqQnEKjUZW-190" edge="1">
          <mxGeometry relative="1" as="geometry">
            <mxPoint x="-110" y="340" as="targetPoint" />
          </mxGeometry>
        </mxCell>
        <mxCell id="v99KTuT6lKcqQnEKjUZW-205" style="edgeStyle=orthogonalEdgeStyle;rounded=0;orthogonalLoop=1;jettySize=auto;html=1;exitX=1;exitY=0.5;exitDx=0;exitDy=0;dashed=1;endArrow=none;endFill=0;" parent="1" source="v99KTuT6lKcqQnEKjUZW-190" edge="1">
          <mxGeometry relative="1" as="geometry">
            <mxPoint x="100" y="222" as="targetPoint" />
            <Array as="points">
              <mxPoint x="-50" y="210" />
              <mxPoint x="100" y="210" />
            </Array>
          </mxGeometry>
        </mxCell>
        <mxCell id="v99KTuT6lKcqQnEKjUZW-208" style="edgeStyle=orthogonalEdgeStyle;rounded=0;orthogonalLoop=1;jettySize=auto;html=1;exitX=0.25;exitY=0;exitDx=0;exitDy=0;endArrow=none;endFill=0;" parent="1" source="v99KTuT6lKcqQnEKjUZW-190" edge="1">
          <mxGeometry relative="1" as="geometry">
            <mxPoint x="-140" y="150" as="targetPoint" />
          </mxGeometry>
        </mxCell>
        <mxCell id="v99KTuT6lKcqQnEKjUZW-190" value="Button&lt;span data-lang=&quot;en&quot; class=&quot;Translate-ValuesContent&quot;&gt;Loupe-&lt;/span&gt;" style="swimlane;fontStyle=0;childLayout=stackLayout;horizontal=1;startSize=26;fillColor=none;horizontalStack=0;resizeParent=1;resizeParentMax=0;resizeLast=0;collapsible=1;marginBottom=0;whiteSpace=wrap;html=1;" parent="1" vertex="1">
          <mxGeometry x="-170" y="200" width="120" height="60" as="geometry">
            <mxRectangle x="-20" y="264" width="110" height="30" as="alternateBounds" />
          </mxGeometry>
        </mxCell>
        <mxCell id="v99KTuT6lKcqQnEKjUZW-194" style="edgeStyle=orthogonalEdgeStyle;rounded=0;orthogonalLoop=1;jettySize=auto;html=1;exitX=0.5;exitY=1;exitDx=0;exitDy=0;endArrow=none;endFill=0;" parent="1" source="v99KTuT6lKcqQnEKjUZW-192" edge="1">
          <mxGeometry relative="1" as="geometry">
            <mxPoint x="40" y="330" as="targetPoint" />
            <Array as="points">
              <mxPoint x="-210" y="340" />
              <mxPoint x="40" y="340" />
            </Array>
          </mxGeometry>
        </mxCell>
        <mxCell id="v99KTuT6lKcqQnEKjUZW-206" style="edgeStyle=orthogonalEdgeStyle;rounded=0;orthogonalLoop=1;jettySize=auto;html=1;exitX=1;exitY=0.25;exitDx=0;exitDy=0;dashed=1;endArrow=none;endFill=0;" parent="1" source="v99KTuT6lKcqQnEKjUZW-192" edge="1">
          <mxGeometry relative="1" as="geometry">
            <mxPoint x="100" y="131" as="targetPoint" />
          </mxGeometry>
        </mxCell>
        <mxCell id="v99KTuT6lKcqQnEKjUZW-192" value="Button&lt;span data-lang=&quot;en&quot; class=&quot;Translate-ValuesContent&quot;&gt;Loupe+&lt;/span&gt;" style="swimlane;fontStyle=0;childLayout=stackLayout;horizontal=1;startSize=26;fillColor=none;horizontalStack=0;resizeParent=1;resizeParentMax=0;resizeLast=0;collapsible=1;marginBottom=0;whiteSpace=wrap;html=1;" parent="1" vertex="1">
          <mxGeometry x="-270" y="120" width="120" height="50" as="geometry">
            <mxRectangle x="-20" y="264" width="110" height="30" as="alternateBounds" />
          </mxGeometry>
        </mxCell>
        <mxCell id="v99KTuT6lKcqQnEKjUZW-197" value="" style="endArrow=open;endSize=12;dashed=1;html=1;rounded=0;entryX=0.5;entryY=1;entryDx=0;entryDy=0;" parent="1" target="v99KTuT6lKcqQnEKjUZW-86" edge="1">
          <mxGeometry width="160" relative="1" as="geometry">
            <mxPoint x="100" y="210" as="sourcePoint" />
            <mxPoint x="150" y="141.5" as="targetPoint" />
          </mxGeometry>
        </mxCell>
        <mxCell id="v99KTuT6lKcqQnEKjUZW-207" value="" style="endArrow=block;endSize=16;endFill=0;html=1;rounded=0;exitX=1;exitY=1;exitDx=0;exitDy=0;entryX=-0.012;entryY=0.206;entryDx=0;entryDy=0;entryPerimeter=0;" parent="1" target="v99KTuT6lKcqQnEKjUZW-59" edge="1">
          <mxGeometry width="160" relative="1" as="geometry">
            <mxPoint x="-150" y="150" as="sourcePoint" />
            <mxPoint x="610" y="150" as="targetPoint" />
          </mxGeometry>
        </mxCell>
        <mxCell id="v99KTuT6lKcqQnEKjUZW-214" value="&lt;div&gt;1..*&lt;/div&gt;" style="text;html=1;whiteSpace=wrap;strokeColor=none;fillColor=none;align=center;verticalAlign=middle;rounded=0;" parent="1" vertex="1">
          <mxGeometry x="20" y="750" width="60" height="30" as="geometry" />
        </mxCell>
        <mxCell id="v99KTuT6lKcqQnEKjUZW-215" value="&lt;div&gt;1..1&lt;/div&gt;" style="text;html=1;whiteSpace=wrap;strokeColor=none;fillColor=none;align=center;verticalAlign=middle;rounded=0;" parent="1" vertex="1">
          <mxGeometry x="160" y="720" width="60" height="30" as="geometry" />
        </mxCell>
        <mxCell id="v99KTuT6lKcqQnEKjUZW-216" value="&lt;div&gt;1..1&lt;/div&gt;" style="text;html=1;whiteSpace=wrap;strokeColor=none;fillColor=none;align=center;verticalAlign=middle;rounded=0;" parent="1" vertex="1">
          <mxGeometry x="300" y="370" width="60" height="30" as="geometry" />
        </mxCell>
        <mxCell id="v99KTuT6lKcqQnEKjUZW-217" value="&lt;div&gt;1..1&lt;/div&gt;" style="text;html=1;whiteSpace=wrap;strokeColor=none;fillColor=none;align=center;verticalAlign=middle;rounded=0;" parent="1" vertex="1">
          <mxGeometry x="90" y="430" width="60" height="30" as="geometry" />
        </mxCell>
        <mxCell id="v99KTuT6lKcqQnEKjUZW-218" value="&lt;div&gt;1..1&lt;/div&gt;" style="text;html=1;whiteSpace=wrap;strokeColor=none;fillColor=none;align=center;verticalAlign=middle;rounded=0;" parent="1" vertex="1">
          <mxGeometry x="460" y="610" width="60" height="30" as="geometry" />
        </mxCell>
        <mxCell id="v99KTuT6lKcqQnEKjUZW-219" value="" style="endArrow=block;dashed=1;endFill=0;endSize=12;html=1;rounded=0;exitX=0.006;exitY=-0.06;exitDx=0;exitDy=0;exitPerimeter=0;entryX=1;entryY=0.5;entryDx=0;entryDy=0;" parent="1" source="v99KTuT6lKcqQnEKjUZW-104" target="v99KTuT6lKcqQnEKjUZW-176" edge="1">
          <mxGeometry width="160" relative="1" as="geometry">
            <mxPoint x="30" y="380" as="sourcePoint" />
            <mxPoint x="190" y="380" as="targetPoint" />
          </mxGeometry>
        </mxCell>
        <mxCell id="v99KTuT6lKcqQnEKjUZW-220" value="" style="endArrow=block;dashed=1;endFill=0;endSize=12;html=1;rounded=0;exitX=0;exitY=0.5;exitDx=0;exitDy=0;entryX=1;entryY=0.5;entryDx=0;entryDy=0;" parent="1" source="v99KTuT6lKcqQnEKjUZW-110" target="v99KTuT6lKcqQnEKjUZW-177" edge="1">
          <mxGeometry width="160" relative="1" as="geometry">
            <mxPoint x="-59" y="520" as="sourcePoint" />
            <mxPoint x="-170" y="550" as="targetPoint" />
          </mxGeometry>
        </mxCell>
        <mxCell id="E2uyZCjoKjKYNULRWPWC-6" value="difficulty:" style="swimlane;fontStyle=1;align=center;verticalAlign=top;childLayout=stackLayout;horizontal=1;startSize=26;horizontalStack=0;resizeParent=1;resizeParentMax=0;resizeLast=0;collapsible=1;marginBottom=0;whiteSpace=wrap;html=1;" vertex="1" parent="1">
          <mxGeometry x="630" y="830" width="160" height="160" as="geometry" />
        </mxCell>
        <mxCell id="E2uyZCjoKjKYNULRWPWC-7" value="&lt;div&gt;-NumberOfMine: int&lt;/div&gt;&lt;div&gt;-QuantityHeight: int&lt;/div&gt;&lt;div&gt;-QuantityWidth: int&lt;/div&gt;" style="text;strokeColor=none;fillColor=none;align=left;verticalAlign=top;spacingLeft=4;spacingRight=4;overflow=hidden;rotatable=0;points=[[0,0.5],[1,0.5]];portConstraint=eastwest;whiteSpace=wrap;html=1;" vertex="1" parent="E2uyZCjoKjKYNULRWPWC-6">
          <mxGeometry y="26" width="160" height="54" as="geometry" />
        </mxCell>
        <mxCell id="E2uyZCjoKjKYNULRWPWC-8" value="" style="line;strokeWidth=1;fillColor=none;align=left;verticalAlign=middle;spacingTop=-1;spacingLeft=3;spacingRight=3;rotatable=0;labelPosition=right;points=[];portConstraint=eastwest;strokeColor=inherit;" vertex="1" parent="E2uyZCjoKjKYNULRWPWC-6">
          <mxGeometry y="80" width="160" height="8" as="geometry" />
        </mxCell>
        <mxCell id="E2uyZCjoKjKYNULRWPWC-9" value="&lt;div&gt;+SetDifficulty(n: int) void:&lt;br&gt;+GetHeight(): int&lt;/div&gt;&lt;div&gt;+GetWidth(): int&lt;/div&gt;&lt;div&gt;+GetMine(): int&lt;/div&gt;" style="text;strokeColor=none;fillColor=none;align=left;verticalAlign=top;spacingLeft=4;spacingRight=4;overflow=hidden;rotatable=0;points=[[0,0.5],[1,0.5]];portConstraint=eastwest;whiteSpace=wrap;html=1;" vertex="1" parent="E2uyZCjoKjKYNULRWPWC-6">
          <mxGeometry y="88" width="160" height="72" as="geometry" />
        </mxCell>
        <mxCell id="E2uyZCjoKjKYNULRWPWC-10" value="" style="endArrow=block;endSize=16;endFill=0;html=1;rounded=0;entryX=0.839;entryY=1;entryDx=0;entryDy=0;entryPerimeter=0;exitX=0.624;exitY=-0.03;exitDx=0;exitDy=0;exitPerimeter=0;" edge="1" parent="1" target="v99KTuT6lKcqQnEKjUZW-59">
          <mxGeometry width="160" relative="1" as="geometry">
            <mxPoint x="846.0799999999999" y="616.4000000000001" as="sourcePoint" />
            <mxPoint x="510" y="410" as="targetPoint" />
          </mxGeometry>
        </mxCell>
        <mxCell id="E2uyZCjoKjKYNULRWPWC-11" value="StartGame" style="swimlane;fontStyle=1;align=center;verticalAlign=top;childLayout=stackLayout;horizontal=1;startSize=26;horizontalStack=0;resizeParent=1;resizeParentMax=0;resizeLast=0;collapsible=1;marginBottom=0;whiteSpace=wrap;html=1;" vertex="1" parent="1">
          <mxGeometry x="760" y="610" width="160" height="158" as="geometry" />
        </mxCell>
        <mxCell id="E2uyZCjoKjKYNULRWPWC-12" value="&lt;div&gt;-&lt;span lang=&quot;en&quot; class=&quot;HwtZe&quot;&gt;&lt;span class=&quot;jCAhz ChMk0b&quot;&gt;&lt;span class=&quot;ryNqvb&quot;&gt;description: String&lt;/span&gt;&lt;/span&gt;&lt;/span&gt;&lt;/div&gt;&lt;div&gt;&lt;span lang=&quot;en&quot; class=&quot;HwtZe&quot;&gt;&lt;span class=&quot;jCAhz ChMk0b&quot;&gt;&lt;span class=&quot;ryNqvb&quot;&gt;-Game: Game&lt;/span&gt;&lt;/span&gt;&lt;/span&gt;&lt;/div&gt;" style="text;strokeColor=none;fillColor=none;align=left;verticalAlign=top;spacingLeft=4;spacingRight=4;overflow=hidden;rotatable=0;points=[[0,0.5],[1,0.5]];portConstraint=eastwest;whiteSpace=wrap;html=1;" vertex="1" parent="E2uyZCjoKjKYNULRWPWC-11">
          <mxGeometry y="26" width="160" height="34" as="geometry" />
        </mxCell>
        <mxCell id="E2uyZCjoKjKYNULRWPWC-13" value="" style="line;strokeWidth=1;fillColor=none;align=left;verticalAlign=middle;spacingTop=-1;spacingLeft=3;spacingRight=3;rotatable=0;labelPosition=right;points=[];portConstraint=eastwest;strokeColor=inherit;" vertex="1" parent="E2uyZCjoKjKYNULRWPWC-11">
          <mxGeometry y="60" width="160" height="8" as="geometry" />
        </mxCell>
        <mxCell id="E2uyZCjoKjKYNULRWPWC-14" value="&lt;div&gt;+ChooseDifficulty(difficulty: int): difficulty&lt;/div&gt;&lt;div&gt;+StartGame(difficulty): Game&lt;/div&gt;&lt;div&gt;+ExitToScreen(): void&lt;/div&gt;&lt;div&gt;&lt;br&gt;&lt;br&gt;&lt;/div&gt;" style="text;strokeColor=none;fillColor=none;align=left;verticalAlign=top;spacingLeft=4;spacingRight=4;overflow=hidden;rotatable=0;points=[[0,0.5],[1,0.5]];portConstraint=eastwest;whiteSpace=wrap;html=1;" vertex="1" parent="E2uyZCjoKjKYNULRWPWC-11">
          <mxGeometry y="68" width="160" height="90" as="geometry" />
        </mxCell>
        <mxCell id="E2uyZCjoKjKYNULRWPWC-15" value="" style="endArrow=open;endSize=12;dashed=1;html=1;rounded=0;entryX=0.446;entryY=-0.012;entryDx=0;entryDy=0;entryPerimeter=0;exitX=0.419;exitY=1.004;exitDx=0;exitDy=0;exitPerimeter=0;" edge="1" parent="1" source="E2uyZCjoKjKYNULRWPWC-14" target="E2uyZCjoKjKYNULRWPWC-6">
          <mxGeometry width="160" relative="1" as="geometry">
            <mxPoint x="620" y="700" as="sourcePoint" />
            <mxPoint x="780" y="700" as="targetPoint" />
          </mxGeometry>
        </mxCell>
        <mxCell id="E2uyZCjoKjKYNULRWPWC-18" value="" style="endArrow=diamondThin;endFill=1;endSize=24;html=1;rounded=0;entryX=0.641;entryY=1.018;entryDx=0;entryDy=0;entryPerimeter=0;exitX=0.411;exitY=-0.015;exitDx=0;exitDy=0;exitPerimeter=0;" edge="1" parent="1" source="E2uyZCjoKjKYNULRWPWC-6" target="v99KTuT6lKcqQnEKjUZW-161">
          <mxGeometry width="160" relative="1" as="geometry">
            <mxPoint x="460" y="820" as="sourcePoint" />
            <mxPoint x="620" y="820" as="targetPoint" />
          </mxGeometry>
        </mxCell>
        <mxCell id="E2uyZCjoKjKYNULRWPWC-19" value="1..1" style="text;html=1;whiteSpace=wrap;strokeColor=none;fillColor=none;align=center;verticalAlign=middle;rounded=0;" vertex="1" parent="1">
          <mxGeometry x="590" y="760" width="60" height="30" as="geometry" />
        </mxCell>
        <mxCell id="E2uyZCjoKjKYNULRWPWC-23" value="" style="endArrow=diamondThin;endFill=0;endSize=24;html=1;rounded=0;entryX=0.009;entryY=0.258;entryDx=0;entryDy=0;entryPerimeter=0;exitX=1.01;exitY=0.396;exitDx=0;exitDy=0;exitPerimeter=0;" edge="1" parent="1" source="v99KTuT6lKcqQnEKjUZW-161" target="E2uyZCjoKjKYNULRWPWC-14">
          <mxGeometry width="160" relative="1" as="geometry">
            <mxPoint x="680" y="700" as="sourcePoint" />
            <mxPoint x="840" y="700" as="targetPoint" />
          </mxGeometry>
        </mxCell>
        <mxCell id="E2uyZCjoKjKYNULRWPWC-24" value="" style="endArrow=open;endSize=12;dashed=1;html=1;rounded=0;exitX=1;exitY=0.75;exitDx=0;exitDy=0;entryX=0.011;entryY=0.077;entryDx=0;entryDy=0;entryPerimeter=0;" edge="1" parent="1" source="v99KTuT6lKcqQnEKjUZW-109" target="v99KTuT6lKcqQnEKjUZW-154">
          <mxGeometry width="160" relative="1" as="geometry">
            <mxPoint x="160" y="650" as="sourcePoint" />
            <mxPoint x="320" y="650" as="targetPoint" />
          </mxGeometry>
        </mxCell>
        <mxCell id="E2uyZCjoKjKYNULRWPWC-25" value="1..1" style="text;html=1;whiteSpace=wrap;strokeColor=none;fillColor=none;align=center;verticalAlign=middle;rounded=0;" vertex="1" parent="1">
          <mxGeometry x="710" y="650" width="60" height="30" as="geometry" />
        </mxCell>
      </root>
    </mxGraphModel>
  </diagram>
</mxfile>
